<?xml version="1.0" encoding="UTF-8"?> <svg xmlns="http://www.w3.org/2000/svg" id="Layer_1" data-name="Layer 1" viewBox="0 0 314.38 334.03"><path d="M305.59,205.9l-99.51-38.89,100.38-38.89c5.19-1.73,8.65-7.78,7.79-12.96-1.73-11.24-6.92-21.61-12.98-31.11-5.19-10.37-12.11-19.01-20.77-26.79-4.33-3.46-10.38-3.46-14.71,0l-83.94,67.41,17.31-106.3c1.73-6.05-1.73-11.23-6.92-12.96C181.85,1.08,169.74-.65,158.49.22c-11.25-.86-23.36.86-33.75,5.19-5.19,1.73-8.65,7.78-6.92,12.96l17.31,106.3L51.19,57.25c-4.33-4.32-10.38-4.32-14.71,0-8.65,6.91-15.58,16.42-20.77,26.79-6.92,9.51-11.25,19.88-13.85,31.11-.87,6.05,2.6,11.24,7.79,12.96l98.65,38.89L7.92,205.9c-5.19,1.73-8.65,7.78-7.79,12.96,1.73,11.23,6.06,21.61,12.98,31.11,5.19,10.37,12.11,19.01,20.77,26.79,4.33,3.46,10.38,3.46,14.71,0l83.94-67.41-17.31,106.3c-1.73,6.05,1.73,11.23,6.92,13.83,11.25,3.46,22.5,5.19,33.75,4.32,11.25.86,23.36-.86,33.75-4.32,5.19-1.73,8.65-7.78,6.92-13.83l-17.31-106.3,83.94,67.41c4.33,3.46,10.38,3.46,15.58,0,8.65-6.91,15.57-15.56,20.77-25.93,6.92-9.51,11.25-19.88,13.85-31.11.87-6.91-1.73-12.1-7.79-13.83Z"></path></svg> 